<svg width="219" height="45" viewBox="0 0 219 45" fill="none" xmlns="http://www.w3.org/2000/svg">
<path d="M9.54417 38.9706C8.59835 38.8833 7.48057 38.6211 6.2768 38.2716C4.98704 37.9221 3.86926 37.4852 3.00942 36.8736C2.14959 36.2619 1.46172 35.4755 0.859835 34.5143C0.343934 33.5532 0 32.3299 0 30.9318V18.524C0 12.8444 4.29918 9.96094 12.9835 9.96094C15.2191 9.96094 18.1425 10.3105 21.8398 10.9221V16.0774C18.4865 15.291 15.563 14.8541 13.0695 14.8541C12.0377 14.8541 11.1779 14.8541 10.576 14.9415C9.97409 15.0289 9.3722 15.1163 8.77032 15.3784C7.39458 15.8153 6.70671 16.8639 6.70671 18.4367V30.4949C6.70671 33.0289 9.02827 34.3396 13.5854 34.3396C15.563 34.3396 18.3145 33.9027 21.9258 33.0289V38.1842C18.8304 38.7959 15.821 39.1454 12.8975 39.1454C11.6938 39.1454 10.576 39.1454 9.54417 38.9706Z" fill="#F6FCFA"/>
<path d="M32.7599 39.0583C31.9 38.9709 31.0402 38.7961 30.0944 38.534C29.0626 38.2719 28.2027 37.835 27.6009 37.3107C26.999 36.7864 26.3971 36 25.9672 35.0389C25.5372 34.0777 25.2793 32.9418 25.2793 31.5437V25.2525C25.2793 23.8544 25.5372 22.6311 25.9672 21.5826C26.3971 20.534 26.913 19.7476 27.6868 19.136C28.2887 18.6117 29.0626 18.2622 30.0944 17.9127C31.0402 17.5631 32.072 17.3884 33.0178 17.301C34.1356 17.2136 35.0814 17.2136 35.9413 17.2136C37.231 17.2136 38.3488 17.2136 39.1226 17.301C39.8965 17.3884 40.7563 17.5631 41.7022 17.8253C42.734 18.1748 43.5938 18.6117 44.1957 19.136C44.8835 19.6602 45.3994 20.4466 45.8294 21.4952C46.2593 22.5437 46.5172 23.767 46.5172 25.2525V31.4563C46.5172 32.767 46.3453 33.9029 45.9153 34.8641C45.4854 35.8253 44.9695 36.6117 44.2817 37.1359C43.6798 37.6602 42.9059 38.0097 41.9601 38.3592C41.0143 38.7088 39.9825 38.8835 39.0367 38.9709C38.1768 39.0583 37.145 39.0583 35.9413 39.0583C34.6515 39.1457 33.6197 39.1457 32.7599 39.0583ZM38.6067 34.9515C39.2086 34.7767 39.6385 34.4272 39.8965 34.0777C40.1544 33.6408 40.2404 33.1165 40.2404 32.2427V24.2913C40.2404 23.1554 39.9825 22.2816 39.3806 21.8447C38.7787 21.4078 37.6609 21.1457 35.9413 21.1457C34.3076 21.1457 33.1038 21.4078 32.5879 21.8447C31.986 22.2816 31.6421 23.1554 31.6421 24.2913V32.2427C31.6421 33.0292 31.7281 33.6408 31.986 34.0777C32.244 34.5146 32.6739 34.7767 33.2758 34.9515C33.8777 35.1262 34.7375 35.2136 35.9413 35.2136C37.145 35.2136 38.0049 35.1262 38.6067 34.9515Z" fill="#F6FCFA"/>
<path d="M53.9978 38.6212C52.794 38.2717 52.0202 37.5727 51.5043 36.5242C51.0744 35.4756 50.8164 33.9028 50.8164 31.7183V23.5047C50.8164 21.1455 51.5043 19.4853 52.794 18.6115C54.0838 17.6504 56.2334 17.1261 59.1568 17.1261C60.5325 17.1261 61.6503 17.2135 62.4242 17.3882C63.198 17.563 63.8859 17.8251 64.3158 18.1746C64.8317 18.6115 65.2616 19.1358 65.8635 19.9222V8.1261H72.1403V38.7086H66.0355V36.262C65.5196 37.1358 65.0897 37.6601 64.6597 38.0096C64.2298 38.3591 63.6279 38.6213 62.9401 38.796C62.1662 38.9708 61.0484 39.1455 59.5007 39.1455C57.0072 39.1455 55.2016 38.9708 53.9978 38.6212ZM64.1438 34.9513C64.8317 34.7766 65.2616 34.5145 65.4336 34.1649C65.6916 33.8154 65.7775 33.2038 65.7775 32.4174V23.8543C65.7775 23.1552 65.6916 22.5436 65.4336 22.1941C65.1757 21.7572 64.7457 21.495 64.1438 21.3203C63.542 21.1455 62.5961 21.0581 61.3924 21.0581C60.1026 21.0581 59.1568 21.1455 58.5549 21.3203C57.953 21.495 57.6091 21.7572 57.4371 22.1067C57.2652 22.5436 57.1792 23.1552 57.1792 24.029V32.1552C57.1792 32.9416 57.2652 33.5533 57.4371 33.9902C57.6091 34.4271 57.953 34.6892 58.5549 34.864C59.0708 35.0387 59.9307 35.1261 61.1344 35.1261C62.4242 35.2135 63.456 35.1261 64.1438 34.9513Z" fill="#F6FCFA"/>
<path d="M76.9551 32.3299V24.7279C76.9551 22.1066 77.8149 20.1842 79.4486 18.9609C81.1683 17.7376 83.7478 17.126 87.1871 17.126C90.4545 17.126 92.862 17.7376 94.4097 18.8735C95.9574 20.0095 96.7313 21.9318 96.7313 24.7279V29.8833H83.3179V31.8056C83.3179 33.0289 83.7478 33.9027 84.6076 34.4269C85.4675 34.9512 87.0152 35.2134 89.2507 35.2134C91.3143 35.2134 93.6359 34.8638 96.2154 34.2522V38.2716C93.6359 38.7959 90.9704 39.1454 88.047 39.1454C80.6524 39.1454 76.9551 36.8736 76.9551 32.3299ZM90.7984 26.2134V23.1551C90.7984 22.4561 90.5405 21.9318 89.9386 21.5823C89.3367 21.2328 88.4769 21.058 87.1011 21.058C85.5534 21.058 84.5216 21.2328 84.0057 21.5823C83.4898 21.9318 83.2319 22.4561 83.2319 23.1551V26.2134H90.7984Z" fill="#F6FCFA"/>
<path d="M115.046 8.99988H126.396C129.062 8.99988 131.125 9.17464 132.587 9.61153C134.049 9.96104 135.081 10.6601 135.682 11.4465C136.284 12.3203 136.542 13.5436 136.542 15.029V18.5241C136.542 19.3106 136.198 20.097 135.596 20.7086C134.995 21.4076 134.221 21.9319 133.447 22.1941V22.4562C134.565 22.5436 135.51 23.0678 136.456 23.8542C137.316 24.6407 137.832 25.6018 137.832 26.6504V31.0193C137.832 33.2911 136.972 34.9513 135.081 35.9125C133.275 36.8737 130.523 37.3106 126.654 37.3106H115.046V8.99988ZM126.396 20.5339C127.428 20.5339 128.202 20.4465 128.804 20.2717C129.32 20.097 129.664 19.8348 129.836 19.3979C130.008 18.961 130.093 18.4368 130.093 17.6504V16.2523C130.093 15.5533 130.008 15.1164 129.836 14.7669C129.664 14.4174 129.32 14.1552 128.804 14.0678C128.288 13.8931 127.428 13.8057 126.31 13.8057H121.839V20.4465H126.396V20.5339ZM126.568 32.5047C128.202 32.5047 129.406 32.33 130.008 31.8931C130.695 31.5436 131.039 30.9319 131.039 30.0581V27.7863C131.039 26.7377 130.781 25.9513 130.265 25.5144C129.75 25.0775 128.804 24.8154 127.428 24.8154H121.753V32.4174H126.568V32.5047Z" fill="#1DD1A1"/>
<path d="M148.924 37.6601C148.064 37.5727 147.204 37.398 146.258 37.1358C145.227 36.8737 144.367 36.4368 143.765 35.9125C143.163 35.3882 142.647 34.6018 142.217 33.6407C141.787 32.6795 141.529 31.5436 141.529 30.1455V23.8543C141.529 22.4562 141.787 21.2329 142.217 20.1844C142.647 19.1358 143.163 18.3494 143.937 17.7378C144.539 17.2135 145.313 16.864 146.344 16.5145C147.376 16.1649 148.322 15.9902 149.268 15.9028C150.386 15.8154 151.331 15.8154 152.277 15.8154C153.567 15.8154 154.685 15.8154 155.459 15.9028C156.233 15.9902 157.092 16.1649 158.038 16.4271C159.07 16.7766 159.93 17.2135 160.532 17.7378C161.22 18.262 161.735 19.0484 162.165 20.097C162.595 21.1455 162.853 22.3688 162.853 23.8543V30.1455C162.853 31.4562 162.681 32.5921 162.251 33.5533C161.821 34.5145 161.306 35.3009 160.618 35.8251C160.016 36.3494 159.242 36.6989 158.296 37.0484C157.35 37.398 156.318 37.5727 155.373 37.6601C154.513 37.7475 153.481 37.7475 152.277 37.7475C150.816 37.8348 149.698 37.7475 148.924 37.6601ZM154.771 33.5533C155.373 33.3785 155.803 33.029 156.061 32.6795C156.318 32.2426 156.404 31.7183 156.404 30.8446V22.8931C156.404 21.7572 156.147 20.8834 155.545 20.4465C154.943 20.0096 153.825 19.7475 152.105 19.7475C150.472 19.7475 149.268 20.0096 148.666 20.4465C148.064 20.8834 147.806 21.7572 147.806 22.8931V30.8446C147.806 31.631 147.892 32.2426 148.15 32.6795C148.408 33.1164 148.838 33.3785 149.44 33.5533C150.042 33.7281 150.902 33.8154 152.105 33.8154C153.223 33.8154 154.169 33.7281 154.771 33.5533Z" fill="#1DD1A1"/>
<path d="M173.43 26.5628L165.691 16.2521H173L177.127 22.3686L181.254 16.2521H188.563L180.824 26.5628L188.993 37.3977H181.684L177.127 30.7569L172.57 37.3977H165.261L173.43 26.5628Z" fill="#1DD1A1"/>
<path d="M219 45H107.479V0H219.086V45H219ZM110.919 41.5049H215.647V3.49515H110.919V41.5049Z" fill="#F6FCFA"/>
<path d="M211.777 33.2037H193.979V37.3105H211.777V33.2037Z" fill="#F6FCFA"/>
</svg>
