<svg width="120" height="24" viewBox="0 0 120 24" fill="none" xmlns="http://www.w3.org/2000/svg">
<path d="M5.25026 19.493C4.6976 19.4383 4.11731 19.3017 3.48175 19.1378C2.76329 18.9465 2.15537 18.7006 1.68561 18.4C1.21585 18.0994 0.801355 17.6623 0.497393 17.1158C0.165798 16.5966 0 15.9408 0 15.203V8.56319C0 5.53017 2.3488 4 7.07403 4C8.28988 4 9.89259 4.16395 11.9374 4.51917V7.25162C10.1137 6.81442 8.51094 6.59583 7.1293 6.59583C6.54901 6.59583 6.10688 6.62315 5.77528 6.65048C5.44369 6.6778 5.11209 6.75977 4.7805 6.8964C4.03441 7.14232 3.67518 7.68881 3.67518 8.53587V14.9298C3.67518 16.296 4.9463 16.9791 7.46089 16.9791C8.53858 16.9791 10.0584 16.7605 12.0203 16.296V19.0558C10.3347 19.3837 8.70438 19.575 7.07403 19.575C6.38321 19.575 5.77528 19.5476 5.25026 19.493Z" fill="#093845"/>
<path d="M17.9615 19.8648C17.5193 19.8102 17.0219 19.7282 16.4969 19.5916C15.9443 19.4276 15.4745 19.209 15.1429 18.9358C14.7837 18.6352 14.5073 18.2527 14.2586 17.7062C14.0099 17.187 13.8994 16.5859 13.8994 15.8481V12.5145C13.8994 11.7768 14.0099 11.121 14.2586 10.5472C14.5073 10.0007 14.8113 9.56349 15.1705 9.2356C15.5021 8.96235 15.9443 8.74376 16.4693 8.57981C17.0219 8.38854 17.547 8.27924 18.072 8.25191C18.6799 8.22459 19.2049 8.19727 19.7023 8.19727C20.4208 8.19727 21.0011 8.22459 21.4432 8.25191C21.8853 8.27924 22.3551 8.38854 22.8801 8.55248C23.4328 8.71643 23.9025 8.96235 24.2618 9.26292C24.621 9.56349 24.925 9.97336 25.1737 10.5198C25.4224 11.0663 25.5329 11.7495 25.5329 12.5145V15.8481C25.5329 16.5586 25.4224 17.1597 25.2013 17.6789C24.9802 18.198 24.6763 18.6079 24.317 18.9085C24.0131 19.1817 23.5709 19.373 23.0459 19.5369C22.4933 19.7009 21.9682 19.8102 21.4432 19.8648C20.9734 19.9195 20.4208 19.9468 19.7576 19.9468C19.0115 19.9468 18.4312 19.9195 17.9615 19.8648ZM21.1669 17.6789C21.4985 17.5696 21.7195 17.4056 21.8577 17.2144C21.9959 16.9958 22.0511 16.6679 22.0511 16.258V11.9954C22.0511 11.3669 21.8853 10.9297 21.5537 10.6838C21.2221 10.4379 20.6142 10.3013 19.7023 10.3013C18.7904 10.3013 18.1825 10.4379 17.8509 10.6838C17.5193 10.9297 17.3535 11.3669 17.3535 11.9954V16.258C17.3535 16.6679 17.4088 16.9958 17.547 17.2144C17.6851 17.4329 17.9062 17.5969 18.2378 17.6789C18.5694 17.7882 19.0668 17.8428 19.7023 17.8428C20.3379 17.8155 20.8353 17.7882 21.1669 17.6789Z" fill="#093845"/>
<path d="M29.567 19.6463C28.9315 19.455 28.4894 19.0725 28.213 18.5533C27.9643 18.0068 27.8262 17.1598 27.8262 16.0121V11.6129C27.8262 10.3833 28.1854 9.48159 28.9039 8.98975C29.6223 8.47058 30.7829 8.22466 32.3856 8.22466C33.1317 8.22466 33.7396 8.27931 34.1541 8.36128C34.5962 8.44326 34.9278 8.6072 35.2042 8.79847C35.4805 9.01707 35.7568 9.31764 36.0332 9.72751V3.44287H39.4596V19.7283H36.1437V18.444C35.8674 18.8812 35.6187 19.2091 35.37 19.4004C35.1489 19.5917 34.8173 19.7283 34.4028 19.8103C33.9883 19.9195 33.3528 19.9742 32.5238 19.9742C31.1974 19.9469 30.2026 19.8376 29.567 19.6463ZM35.1213 17.7063C35.4805 17.6243 35.7292 17.4877 35.8397 17.2691C35.9779 17.0505 36.0332 16.7499 36.0332 16.3127V11.8042C36.0332 11.4216 35.9779 11.1211 35.8397 10.9025C35.7016 10.6839 35.4805 10.5472 35.1213 10.4379C34.7897 10.356 34.2646 10.3013 33.6015 10.3013C32.883 10.3013 32.358 10.356 32.054 10.4379C31.7501 10.5199 31.529 10.6839 31.4185 10.8751C31.3079 11.0937 31.2527 11.4216 31.2527 11.9135V16.2307C31.2527 16.6679 31.3079 16.9958 31.4185 17.2144C31.529 17.433 31.7224 17.597 32.0264 17.6789C32.3303 17.7609 32.8001 17.8156 33.408 17.8156C34.2094 17.8156 34.762 17.7882 35.1213 17.7063Z" fill="#093845"/>
<path d="M42.168 16.2853V12.2413C42.168 10.8204 42.6377 9.80943 43.5496 9.18097C44.4615 8.5525 45.8708 8.22461 47.8051 8.22461C49.6012 8.22461 50.9276 8.52518 51.7842 9.15364C52.6132 9.75478 53.0553 10.7931 53.0553 12.2686V15.0284H45.6497V16.0394C45.6497 16.6952 45.8984 17.1597 46.3682 17.433C46.8379 17.7062 47.6946 17.8428 48.9104 17.8428C50.0434 17.8428 51.3145 17.6789 52.7237 17.351V19.5096C51.3145 19.8102 49.8223 19.9468 48.2472 19.9468C44.1852 19.9468 42.168 18.7172 42.168 16.2853ZM49.7394 13.061V11.4216C49.7394 11.039 49.5736 10.7658 49.2696 10.5745C48.9657 10.3832 48.4406 10.3013 47.7222 10.3013C46.8932 10.3013 46.3405 10.3832 46.0642 10.5745C45.7602 10.7658 45.6221 11.0664 45.6221 11.4216V13.061H49.7394Z" fill="#093845"/>
<path d="M63.0029 4.80908H69.1927C70.6572 4.80908 71.7902 4.91838 72.5639 5.13698C73.3653 5.35557 73.9179 5.68347 74.2495 6.14798C74.5811 6.6125 74.7469 7.24096 74.7469 8.0607V9.91876C74.7469 10.3286 74.5811 10.7385 74.2495 11.0937C73.9179 11.4763 73.5034 11.7222 73.0613 11.8588V11.9681C73.6692 12.0228 74.1943 12.2687 74.6916 12.7332C75.189 13.1704 75.4377 13.6622 75.4377 14.2087V16.5313C75.4377 17.7609 74.9403 18.6353 73.9456 19.1271C72.9508 19.6463 71.431 19.8922 69.3585 19.8922H63.0029V4.80908ZM69.1927 10.9571C69.773 10.9571 70.2151 10.9024 70.4915 10.8205C70.7678 10.7385 70.9612 10.5746 71.0717 10.356C71.1823 10.1374 71.2375 9.83679 71.2375 9.42692V8.68916C71.2375 8.33394 71.1823 8.0607 71.0994 7.89675C71.0165 7.70548 70.823 7.59618 70.5191 7.51421C70.2151 7.43223 69.773 7.40491 69.1374 7.40491H66.6781V10.9571H69.1927ZM69.3032 17.3237C70.1875 17.3237 70.823 17.2144 71.2099 17.0231C71.5968 16.8319 71.7626 16.504 71.7626 16.0395V14.8372C71.7626 14.2907 71.6244 13.8808 71.3204 13.6622C71.0165 13.4163 70.5191 13.307 69.773 13.307H66.6781V17.3237H69.3032Z" fill="#1DD1A1"/>
<path d="M81.545 20.0836C81.1028 20.0289 80.6054 19.9469 80.0804 19.8103C79.5277 19.6464 79.058 19.4278 78.7264 19.1545C78.3948 18.854 78.0908 18.4714 77.8421 17.9249C77.5934 17.4058 77.4829 16.8046 77.4829 16.0669V12.7059C77.4829 11.9682 77.5934 11.3124 77.8421 10.7386C78.0908 10.1921 78.3948 9.7549 78.754 9.427C79.0856 9.15376 79.5278 8.93516 80.0528 8.77121C80.6054 8.57994 81.1305 8.47065 81.6555 8.44332C82.2634 8.416 82.7884 8.38867 83.2858 8.38867C84.0043 8.38867 84.5846 8.416 85.0267 8.44332C85.4688 8.47065 85.9386 8.57994 86.4636 8.74389C87.0163 8.90784 87.486 9.15376 87.8453 9.45433C88.2045 9.7549 88.5085 10.1648 88.7572 10.7113C89.0059 11.2577 89.1164 11.9409 89.1164 12.7059V16.0395C89.1164 16.75 89.0058 17.3511 88.7848 17.8703C88.5637 18.3894 88.2598 18.7993 87.9005 19.0999C87.5966 19.3731 87.1544 19.5644 86.6294 19.7283C86.0768 19.8923 85.5517 20.0016 85.0267 20.0562C84.5569 20.1109 84.0043 20.1382 83.3411 20.1382C82.5674 20.1382 81.9871 20.1109 81.545 20.0836ZM84.7504 17.8703C85.082 17.761 85.303 17.597 85.4412 17.4058C85.5794 17.1872 85.6346 16.8593 85.6346 16.4494V12.1868C85.6346 11.5583 85.4688 11.1211 85.1372 10.8752C84.8056 10.6293 84.1977 10.4927 83.2858 10.4927C82.3739 10.4927 81.766 10.6293 81.4344 10.8752C81.1028 11.1211 80.937 11.5583 80.937 12.1868V16.4494C80.937 16.8593 80.9923 17.1872 81.1305 17.4058C81.2686 17.6244 81.4897 17.7883 81.8213 17.8703C82.1529 17.9796 82.6503 18.0342 83.2858 18.0342C83.9214 18.0342 84.4188 17.9796 84.7504 17.8703Z" fill="#1DD1A1"/>
<path d="M94.9467 14.1267L90.7188 8.63452H94.698L96.9362 11.8588L99.2021 8.63452H103.181L98.9258 14.1267L103.43 19.8922H99.4508L96.9639 16.34L94.5045 19.8922H90.5254L94.9467 14.1267Z" fill="#1DD1A1"/>
<path d="M119.955 23.9909H58.8584V0H119.955V23.9909ZM60.7374 22.1329H118.076V1.85807H60.7374V22.1329Z" fill="#093845"/>
<path d="M115.976 17.7063H106.221V19.9196H115.976V17.7063Z" fill="#093845"/>
</svg>
