<svg width="41" height="17" viewBox="0 0 41 17" fill="none" xmlns="http://www.w3.org/2000/svg">
<path d="M0.00292969 0.809082H6.1927C7.65725 0.809082 8.7902 0.91838 9.56392 1.13698C10.3653 1.35557 10.9179 1.68347 11.2495 2.14798C11.5811 2.6125 11.7469 3.24096 11.7469 4.0607V5.91876C11.7469 6.32863 11.5811 6.7385 11.2495 7.09372C10.9179 7.47626 10.5034 7.72218 10.0613 7.85881V7.9681C10.6692 8.02275 11.1943 8.26867 11.6916 8.73319C12.189 9.17038 12.4377 9.66222 12.4377 10.2087V12.5313C12.4377 13.7609 11.9403 14.6353 10.9456 15.1271C9.95078 15.6463 8.43097 15.8922 6.3585 15.8922H0.00292969V0.809082ZM6.1927 6.9571C6.77299 6.9571 7.21512 6.90245 7.49145 6.82047C7.76778 6.7385 7.96121 6.57455 8.07174 6.35596C8.18228 6.13736 8.23753 5.83679 8.23753 5.42692V4.68916C8.23753 4.33394 8.18227 4.0607 8.09937 3.89675C8.01647 3.70548 7.82304 3.59618 7.51908 3.51421C7.21512 3.43223 6.77299 3.40491 6.13744 3.40491H3.67811V6.9571H6.1927ZM6.30323 13.3237C7.18749 13.3237 7.82305 13.2144 8.20991 13.0231C8.59677 12.8319 8.76257 12.504 8.76257 12.0395V10.8372C8.76257 10.2907 8.6244 9.88082 8.32044 9.66222C8.01648 9.4163 7.51908 9.307 6.77299 9.307H3.67811V13.3237H6.30323Z" fill="#1DD1A1"/>
<path d="M18.545 16.0836C18.1028 16.0289 17.6054 15.9469 17.0804 15.8103C16.5277 15.6464 16.058 15.4278 15.7264 15.1545C15.3948 14.854 15.0908 14.4714 14.8421 13.9249C14.5934 13.4058 14.4829 12.8046 14.4829 12.0669V8.70594C14.4829 7.96818 14.5934 7.31239 14.8421 6.73858C15.0908 6.19209 15.3948 5.7549 15.754 5.427C16.0856 5.15376 16.5278 4.93516 17.0528 4.77121C17.6054 4.57994 18.1305 4.47065 18.6555 4.44332C19.2634 4.416 19.7884 4.38867 20.2858 4.38867C21.0043 4.38867 21.5846 4.416 22.0267 4.44332C22.4688 4.47065 22.9386 4.57994 23.4636 4.74389C24.0163 4.90784 24.486 5.15376 24.8453 5.45433C25.2045 5.7549 25.5085 6.16477 25.7572 6.71126C26.0059 7.25775 26.1164 7.94086 26.1164 8.70594V12.0395C26.1164 12.75 26.0058 13.3511 25.7848 13.8703C25.5637 14.3894 25.2598 14.7993 24.9005 15.0999C24.5966 15.3731 24.1544 15.5644 23.6294 15.7283C23.0768 15.8923 22.5517 16.0016 22.0267 16.0562C21.5569 16.1109 21.0043 16.1382 20.3411 16.1382C19.5674 16.1382 18.9871 16.1109 18.545 16.0836ZM21.7504 13.8703C22.082 13.761 22.303 13.597 22.4412 13.4058C22.5794 13.1872 22.6346 12.8593 22.6346 12.4494V8.18678C22.6346 7.55831 22.4688 7.12112 22.1372 6.8752C21.8056 6.62928 21.1977 6.49266 20.2858 6.49266C19.3739 6.49266 18.766 6.62928 18.4344 6.8752C18.1028 7.12112 17.937 7.55831 17.937 8.18678V12.4494C17.937 12.8593 17.9923 13.1872 18.1305 13.4058C18.2686 13.6244 18.4897 13.7883 18.8213 13.8703C19.1529 13.9796 19.6503 14.0342 20.2858 14.0342C20.9214 14.0342 21.4188 13.9796 21.7504 13.8703Z" fill="#1DD1A1"/>
<path d="M31.9467 10.1267L27.7188 4.63452H31.698L33.9362 7.85881L36.2021 4.63452H40.1813L35.9258 10.1267L40.43 15.8922H36.4508L33.9639 12.34L31.5045 15.8922H27.5254L31.9467 10.1267Z" fill="#1DD1A1"/>
</svg>
