<svg width="54" height="17" viewBox="0 0 54 17" fill="none" xmlns="http://www.w3.org/2000/svg">
<path d="M5.25026 16.8648C4.6976 16.8102 4.11731 16.6735 3.48175 16.5096C2.76329 16.3183 2.15537 16.0724 1.68561 15.7718C1.21585 15.4713 0.801355 15.0341 0.497393 14.4876C0.165798 13.9684 0 13.3126 0 12.5749V5.93502C0 2.902 2.3488 1.37183 7.07403 1.37183C8.28988 1.37183 9.89259 1.53577 11.9374 1.89099V4.62344C10.1137 4.18625 8.51094 3.96765 7.1293 3.96765C6.54901 3.96765 6.10688 3.99498 5.77528 4.0223C5.44369 4.04963 5.11209 4.1316 4.7805 4.26822C4.03441 4.51414 3.67518 5.06063 3.67518 5.90769V12.3016C3.67518 13.6679 4.9463 14.351 7.46089 14.351C8.53858 14.351 10.0584 14.1324 12.0203 13.6679V16.4276C10.3347 16.7555 8.70438 16.9468 7.07403 16.9468C6.38321 16.9468 5.77528 16.9195 5.25026 16.8648Z" fill="#093845"/>
<path d="M17.9615 16.8648C17.5193 16.8102 17.0219 16.7282 16.4969 16.5916C15.9443 16.4276 15.4745 16.209 15.1429 15.9358C14.7837 15.6352 14.5073 15.2527 14.2586 14.7062C14.0099 14.187 13.8994 13.5859 13.8994 12.8481V9.51454C13.8994 8.77677 14.0099 8.12099 14.2586 7.54717C14.5073 7.00068 14.8113 6.56349 15.1705 6.2356C15.5021 5.96235 15.9443 5.74376 16.4693 5.57981C17.0219 5.38854 17.547 5.27924 18.072 5.25191C18.6799 5.22459 19.2049 5.19727 19.7023 5.19727C20.4208 5.19727 21.0011 5.22459 21.4432 5.25191C21.8853 5.27924 22.3551 5.38854 22.8801 5.55248C23.4328 5.71643 23.9025 5.96235 24.2618 6.26292C24.621 6.56349 24.925 6.97336 25.1737 7.51985C25.4224 8.06634 25.5329 8.74945 25.5329 9.51454V12.8481C25.5329 13.5586 25.4224 14.1597 25.2013 14.6789C24.9802 15.198 24.6763 15.6079 24.317 15.9085C24.0131 16.1817 23.5709 16.373 23.0459 16.5369C22.4933 16.7009 21.9682 16.8102 21.4432 16.8648C20.9734 16.9195 20.4208 16.9468 19.7576 16.9468C19.0115 16.9468 18.4312 16.9195 17.9615 16.8648ZM21.1669 14.6789C21.4985 14.5696 21.7195 14.4056 21.8577 14.2144C21.9959 13.9958 22.0511 13.6679 22.0511 13.258V8.99537C22.0511 8.36691 21.8853 7.92972 21.5537 7.68379C21.2221 7.43787 20.6142 7.30125 19.7023 7.30125C18.7904 7.30125 18.1825 7.43787 17.8509 7.68379C17.5193 7.92972 17.3535 8.36691 17.3535 8.99537V13.258C17.3535 13.6679 17.4088 13.9958 17.547 14.2144C17.6851 14.4329 17.9062 14.5969 18.2378 14.6789C18.5694 14.7882 19.0668 14.8428 19.7023 14.8428C20.3379 14.8155 20.8353 14.7882 21.1669 14.6789Z" fill="#093845"/>
<path d="M29.567 16.6463C28.9315 16.455 28.4894 16.0725 28.213 15.5533C27.9643 15.0068 27.8262 14.1598 27.8262 13.0121V8.6129C27.8262 7.3833 28.1854 6.48159 28.9039 5.98975C29.6223 5.47058 30.7829 5.22466 32.3856 5.22466C33.1317 5.22466 33.7396 5.27931 34.1541 5.36128C34.5962 5.44326 34.9278 5.6072 35.2042 5.79847C35.4805 6.01707 35.7568 6.31764 36.0332 6.72751V0.442871H39.4596V16.7283H36.1437V15.444C35.8674 15.8812 35.6187 16.2091 35.37 16.4004C35.1489 16.5917 34.8173 16.7283 34.4028 16.8103C33.9883 16.9195 33.3528 16.9742 32.5238 16.9742C31.1974 16.9469 30.2026 16.8376 29.567 16.6463ZM35.1213 14.7063C35.4805 14.6243 35.7292 14.4877 35.8397 14.2691C35.9779 14.0505 36.0332 13.7499 36.0332 13.3127V8.80417C36.0332 8.42163 35.9779 8.12106 35.8397 7.90246C35.7016 7.68387 35.4805 7.54724 35.1213 7.43794C34.7897 7.35597 34.2646 7.30132 33.6015 7.30132C32.883 7.30132 32.358 7.35597 32.054 7.43794C31.7501 7.51992 31.529 7.68387 31.4185 7.87514C31.3079 8.09373 31.2527 8.42163 31.2527 8.91347V13.2307C31.2527 13.6679 31.3079 13.9958 31.4185 14.2144C31.529 14.433 31.7224 14.597 32.0264 14.6789C32.3303 14.7609 32.8001 14.8156 33.408 14.8156C34.2094 14.8156 34.762 14.7882 35.1213 14.7063Z" fill="#093845"/>
<path d="M42.168 13.2853V9.24131C42.168 7.82044 42.6377 6.80943 43.5496 6.18097C44.4615 5.5525 45.8708 5.22461 47.8051 5.22461C49.6012 5.22461 50.9276 5.52518 51.7842 6.15364C52.6132 6.75478 53.0553 7.79311 53.0553 9.26864V12.0284H45.6497V13.0394C45.6497 13.6952 45.8984 14.1597 46.3682 14.433C46.8379 14.7062 47.6946 14.8428 48.9104 14.8428C50.0434 14.8428 51.3145 14.6789 52.7237 14.351V16.5096C51.3145 16.8102 49.8223 16.9468 48.2472 16.9468C44.1852 16.9468 42.168 15.7172 42.168 13.2853ZM49.7394 10.061V8.42158C49.7394 8.03903 49.5736 7.76579 49.2696 7.57452C48.9657 7.38325 48.4406 7.30127 47.7222 7.30127C46.8932 7.30127 46.3405 7.38325 46.0642 7.57452C45.7602 7.76579 45.6221 8.06636 45.6221 8.42158V10.061H49.7394Z" fill="#093845"/>
</svg>
