<svg width="26" height="26" viewBox="0 0 26 26" fill="none" xmlns="http://www.w3.org/2000/svg">
<g opacity="0.5" clip-path="url(#clip0_812_100)">
<path d="M0.459237 12.536L6.45016 14.772L8.76901 22.2294C8.91738 22.7071 9.50143 22.8836 9.88909 22.5667L13.2285 19.8443C13.5786 19.5591 14.0772 19.5449 14.443 19.8104L20.4662 24.1833C20.8808 24.4848 21.4684 24.2575 21.5724 23.7564L25.9847 2.53254C26.0982 1.98515 25.5603 1.52851 25.0391 1.73009L0.452217 11.215C-0.154537 11.449 -0.14925 12.308 0.459237 12.536ZM8.3953 13.5818L20.1038 6.37049C20.3142 6.24127 20.5307 6.52579 20.35 6.69341L10.6871 15.6755C10.3475 15.9917 10.1284 16.4148 10.0663 16.8741L9.73716 19.3134C9.69357 19.6391 9.23606 19.6714 9.14618 19.3562L7.88024 14.908C7.73525 14.4007 7.94654 13.8587 8.3953 13.5818Z" fill="#F6FCFA"/>
</g>
<defs>
<clipPath id="clip0_812_100">
<rect width="26" height="26" fill="white"/>
</clipPath>
</defs>
</svg>
